/* XPM */
static xpm_string_t barra_xpm[] = {
"40 60 37 1",
" 	c None",
".	c None",
"+	c None",
"@	c #FFFFFF",
"#	c None",
"$	c None",
"%	c None",
"&	c None",
"*	c None",
"=	c None",
"-	c None",
";	c None",
">	c None",
",	c None",
"'	c None",
")	c None",
"!	c None",
"~	c None",
"{	c None",
"]	c None",
"^	c None",
"/	c None",
"(	c None",
"_	c None",
":	c None",
"<	c None",
"[	c None",
"}	c None",
"|	c None",
"1	c None",
"2	c None",
"3	c None",
"4	c None",
"5	c None",
"6	c None",
"7	c None",
"8	c None",
"........................................",
"........................................",
"........................................",
"........................................",
"........................................",
"........................................",
"........................................",
"........................................",
"........................................",
"........................................",
"........................................",
"........................................",
"........................................",
".........................+@@@...........",
".........................@@@#...........",
"........................$@@@%...........",
"........................&@@@............",
"........................@@@*............",
".......................=@@@.............",
".......................@@@-.............",
".......................@@@;.............",
"......................>@@@..............",
"......................@@@,..............",
".....................'@@@...............",
".....................)@@)...............",
".....................@@@!...............",
"....................~@@@................",
"....................@@@{................",
"...................]@@@.................",
"...................-@@@.................",
"...................@@@^.................",
"..................*@@@..................",
"..................@@@/..................",
".................(@@@...................",
".................#@@@...................",
".................@@@_...................",
"................:@@@....................",
"................@@@<....................",
"................@@@[....................",
"...............}@@@.....................",
"...............@@@|.....................",
"..............!@@@......................",
"..............)@@1......................",
"..............@@@2......................",
".............,@@@.......................",
".............@@@3.......................",
"............4@@@........................",
"............<@@@........................",
"............@@@5........................",
"...........6@@@.........................",
"...........@@@>.........................",
"...........@@@..........................",
"........../@@@..........................",
"..........@@@7..........................",
".........8@@@...........................",
".........@@@&...........................",
".........@@@$...........................",
"........................................",
"........................................",
"........................................"};
