/* XPM */
static xpm_string_t explosion1_xpm[] = {
"89 89 6 1 ",
"  c #FF3139",
". c #FF7E00",
"X c #FFC20E",
"o c #FFF200",
"O c #FFF9BD",
"+ c None",
/* pixels */
"+++++++++++++++++++++++++++++++++++++++++++++++++++++++++++++++++++++++++++++++++++++++++",
"+++++++++++++++++++++++++++++++++++++++++++++++++++++++++++++++++++++++++++++++++++++++++",
"+++++++++++++++++++++++++++++++++++++++++++++++++++++++++++++++++++++++++++++++++++++++++",
"+++++++++++++++++++++++++++++++++++++++++++++++++++++++++++++++++++++++++++++++++++++++++",
"+++++++++++++++++++++++++++++++++++++++++++++++++++++++++++++++++++++++++++++++++++++++++",
"+++++++++++++++++++++++++++++++++++++++++++++++++++++++++++++++++++++++++++++++++++++++++",
"+++++++++++++++++++++++++++++++++++++++++++++++++++++++++++++++++++++++++++++++++++++++++",
"+++++++++++++++++++++++++++++++++++++++++++++++++++++++++++++++++++++++++++++++++++++++++",
"+++++++++++++++++++++++++++++++++++++++++++++++++++++++++++++++++++++++++++++++++++++++++",
"+++++++++++++++++++++++++++++++++++++++++++++++++++++++++++++++++++++++++++++++++++++++++",
"+++++++++++++++++++++++++++++++++++++++++++++++++++++++++++++++++++++++++++++++++++++++++",
"+++++++++++++++++++++++++++++++++++++++++++++++++++++++++++++++++++++++++++++++++++++++++",
"+++++++++++++++++++++++++++++++++++++++++++++++++++++++++++++++++++++++++++++++++++++++++",
"+++++++++++++++++++++++++++++++++++++++++++++++++++++++++++++++++++++++++++++++++++++++++",
"+++++++++++++++++++++++++++++++++++++++++++++++++++++++++++++++++++++++++++++++++++++++++",
"+++++++++++++++++++++++++++++++++++++++++++++++++++++++++++++++++++++++++++++++++++++++++",
"+++++++++++++++++++++++++++++++++++++++++++++++++++++++++++++++++++++++++++++++++++++++++",
"+++++++++++++++++++++++++++++++++++++++++++++++++++++++++++++++++++++++++++++++++++++++++",
"+++++++++++++++++++++++++++++++++++++++++++++++++++++++++++++++++++++++++++++++++++++++++",
"+++++++++++++++++++++++++++++++++++++++++++++++++++++++++++++++++++++++++++++++++++++++++",
"++++++++++++++++++++++++++++++++++++++++++++O++++++++++++++++++++++++++++++++++++++++++++",
"++++++++++++++++++++++++++++++++++++++++  ..O..  ++++++++++++++++++++++++++++++++++++++++",
"+++++++++++++++++++++++++++++++++++++ ..XXoOOOoXX.. +++++++++++++++++++++++++++++++++++++",
"++++++++++++++++++++++++++++++++++ ..XOOOOOOOOOOOOOX.. ++++++++++++++++++++++++++++++++++",
"+++++++++++++++++++++++++++++++++ XOOOOOOOOOOOOOOOOOOOX +++++++++++++++++++++++++++++++++",
"+++++++++++++++++++++++++++++++ .OOOOOOOOOOOOOOOOOOOOOOO. +++++++++++++++++++++++++++++++",
"++++++++++++++++++++++++++++++.XOOOOOOOOOOOOOOOOOOOOOOOOOX.++++++++++++++++++++++++++++++",
"+++++++++++++++++++++++++++++.OOOOOOOOOOOOOOOOOOOOOOOOOOOOO.+++++++++++++++++++++++++++++",
"++++++++++++++++++++++++++++.OOOOOOOOOOOOOOOOOOOOOOOOOOOOOOO.++++++++++++++++++++++++++++",
"+++++++++++++++++++++++++++.OOOOOOOOOOOOOOOOOOOOOOOOOOOOOOOOO.+++++++++++++++++++++++++++",
"++++++++++++++++++++++++++.OOOOOOOOOOOOOOOOOOOOOOOOOOOOOOOOOOO.++++++++++++++++++++++++++",
"+++++++++++++++++++++++++ XOOOOOOOOOOOOOOOOOOOOOOOOOOOOOOOOOOOX +++++++++++++++++++++++++",
"+++++++++++++++++++++++++.OOOOOOOOOOOOOOOOOOOOOOOOOOOOOOOOOOOOO.+++++++++++++++++++++++++",
"++++++++++++++++++++++++ OOOOOOOOOOOOOOOOOOOOOOOOOOOOOOOOOOOOOOO ++++++++++++++++++++++++",
"+++++++++++++++++++++++ XOOOOOOOOOOOOOOOOOOOOOOOOOOOOOOOOOOOOOOOX +++++++++++++++++++++++",
"+++++++++++++++++++++++.OOOOOOOOOOOOOOOOOOOOOOOOOOOOOOOOOOOOOOOOO.+++++++++++++++++++++++",
"+++++++++++++++++++++++.OOOOOOOOOOOOOOOOOOOOOOOOOOOOOOOOOOOOOOOOO.+++++++++++++++++++++++",
"++++++++++++++++++++++ XOOOOOOOOOOOOOOOOOOOOOOOOOOOOOOOOOOOOOOOOOX ++++++++++++++++++++++",
"++++++++++++++++++++++.OOOOOOOOOOOOOOOOOOOOOOOOOOOOOOOOOOOOOOOOOOO.++++++++++++++++++++++",
"++++++++++++++++++++++.OOOOOOOOOOOOOOOOOOOOOOOOOOOOOOOOOOOOOOOOOOO.++++++++++++++++++++++",
"+++++++++++++++++++++ XOOOOOOOOOOOOOOOOOOOOOOOOOOOOOOOOOOOOOOOOOOOX +++++++++++++++++++++",
"+++++++++++++++++++++ XOOOOOOOOOOOOOOOOOOOOOOOOOOOOOOOOOOOOOOOOOOOX +++++++++++++++++++++",
"+++++++++++++++++++++.oOOOOOOOOOOOOOOOOOOOOOOOOOOOOOOOOOOOOOOOOOOOo.+++++++++++++++++++++",
"+++++++++++++++++++++.OOOOOOOOOOOOOOOOOOOOOOOOOOOOOOOOOOOOOOOOOOOOO.+++++++++++++++++++++",
"++++++++++++++++++++OOOOOOOOOOOOOOOOOOOOOOOOOOOOOOOOOOOOOOOOOOOOOOOOO++++++++++++++++++++",
"+++++++++++++++++++++.OOOOOOOOOOOOOOOOOOOOOOOOOOOOOOOOOOOOOOOOOOOOO.+++++++++++++++++++++",
"+++++++++++++++++++++.oOOOOOOOOOOOOOOOOOOOOOOOOOOOOOOOOOOOOOOOOOOOo.+++++++++++++++++++++",
"+++++++++++++++++++++ XOOOOOOOOOOOOOOOOOOOOOOOOOOOOOOOOOOOOOOOOOOOX +++++++++++++++++++++",
"+++++++++++++++++++++ XOOOOOOOOOOOOOOOOOOOOOOOOOOOOOOOOOOOOOOOOOOOX +++++++++++++++++++++",
"++++++++++++++++++++++.OOOOOOOOOOOOOOOOOOOOOOOOOOOOOOOOOOOOOOOOOOO.++++++++++++++++++++++",
"++++++++++++++++++++++.OOOOOOOOOOOOOOOOOOOOOOOOOOOOOOOOOOOOOOOOOOO.++++++++++++++++++++++",
"++++++++++++++++++++++ XOOOOOOOOOOOOOOOOOOOOOOOOOOOOOOOOOOOOOOOOOX ++++++++++++++++++++++",
"+++++++++++++++++++++++.OOOOOOOOOOOOOOOOOOOOOOOOOOOOOOOOOOOOOOOOO.+++++++++++++++++++++++",
"+++++++++++++++++++++++.OOOOOOOOOOOOOOOOOOOOOOOOOOOOOOOOOOOOOOOOO.+++++++++++++++++++++++",
"+++++++++++++++++++++++ XOOOOOOOOOOOOOOOOOOOOOOOOOOOOOOOOOOOOOOOX +++++++++++++++++++++++",
"++++++++++++++++++++++++ OOOOOOOOOOOOOOOOOOOOOOOOOOOOOOOOOOOOOOO ++++++++++++++++++++++++",
"+++++++++++++++++++++++++.OOOOOOOOOOOOOOOOOOOOOOOOOOOOOOOOOOOOO.+++++++++++++++++++++++++",
"+++++++++++++++++++++++++ XOOOOOOOOOOOOOOOOOOOOOOOOOOOOOOOOOOOX +++++++++++++++++++++++++",
"++++++++++++++++++++++++++.OOOOOOOOOOOOOOOOOOOOOOOOOOOOOOOOOOO.++++++++++++++++++++++++++",
"+++++++++++++++++++++++++++.OOOOOOOOOOOOOOOOOOOOOOOOOOOOOOOOO.+++++++++++++++++++++++++++",
"++++++++++++++++++++++++++++.OOOOOOOOOOOOOOOOOOOOOOOOOOOOOOO.++++++++++++++++++++++++++++",
"+++++++++++++++++++++++++++++.OOOOOOOOOOOOOOOOOOOOOOOOOOOOO.+++++++++++++++++++++++++++++",
"++++++++++++++++++++++++++++++.XOOOOOOOOOOOOOOOOOOOOOOOOOX.++++++++++++++++++++++++++++++",
"+++++++++++++++++++++++++++++++ .OOOOOOOOOOOOOOOOOOOOOOO. +++++++++++++++++++++++++++++++",
"+++++++++++++++++++++++++++++++++ XOOOOOOOOOOOOOOOOOOOX +++++++++++++++++++++++++++++++++",
"++++++++++++++++++++++++++++++++++ ..XOOOOOOOOOOOOOX.. ++++++++++++++++++++++++++++++++++",
"+++++++++++++++++++++++++++++++++++++ ..XXoOOOoXX.. +++++++++++++++++++++++++++++++++++++",
"++++++++++++++++++++++++++++++++++++++++  ..O..  ++++++++++++++++++++++++++++++++++++++++",
"++++++++++++++++++++++++++++++++++++++++++++O++++++++++++++++++++++++++++++++++++++++++++",
"+++++++++++++++++++++++++++++++++++++++++++++++++++++++++++++++++++++++++++++++++++++++++",
"+++++++++++++++++++++++++++++++++++++++++++++++++++++++++++++++++++++++++++++++++++++++++",
"+++++++++++++++++++++++++++++++++++++++++++++++++++++++++++++++++++++++++++++++++++++++++",
"+++++++++++++++++++++++++++++++++++++++++++++++++++++++++++++++++++++++++++++++++++++++++",
"+++++++++++++++++++++++++++++++++++++++++++++++++++++++++++++++++++++++++++++++++++++++++",
"+++++++++++++++++++++++++++++++++++++++++++++++++++++++++++++++++++++++++++++++++++++++++",
"+++++++++++++++++++++++++++++++++++++++++++++++++++++++++++++++++++++++++++++++++++++++++",
"+++++++++++++++++++++++++++++++++++++++++++++++++++++++++++++++++++++++++++++++++++++++++",
"+++++++++++++++++++++++++++++++++++++++++++++++++++++++++++++++++++++++++++++++++++++++++",
"+++++++++++++++++++++++++++++++++++++++++++++++++++++++++++++++++++++++++++++++++++++++++",
"+++++++++++++++++++++++++++++++++++++++++++++++++++++++++++++++++++++++++++++++++++++++++",
"+++++++++++++++++++++++++++++++++++++++++++++++++++++++++++++++++++++++++++++++++++++++++",
"+++++++++++++++++++++++++++++++++++++++++++++++++++++++++++++++++++++++++++++++++++++++++",
"+++++++++++++++++++++++++++++++++++++++++++++++++++++++++++++++++++++++++++++++++++++++++",
"+++++++++++++++++++++++++++++++++++++++++++++++++++++++++++++++++++++++++++++++++++++++++",
"+++++++++++++++++++++++++++++++++++++++++++++++++++++++++++++++++++++++++++++++++++++++++",
"+++++++++++++++++++++++++++++++++++++++++++++++++++++++++++++++++++++++++++++++++++++++++",
"+++++++++++++++++++++++++++++++++++++++++++++++++++++++++++++++++++++++++++++++++++++++++",
"+++++++++++++++++++++++++++++++++++++++++++++++++++++++++++++++++++++++++++++++++++++++++",
"+++++++++++++++++++++++++++++++++++++++++++++++++++++++++++++++++++++++++++++++++++++++++"
};
