/* XPM */
static xpm_string_t explosion2_xpm[] = {
"89 89 6 1 ",
"  c #FF3139",
". c #FF7E00",
"X c #FFC20E",
"o c #FFF200",
"O c #FFF9BD",
"+ c None",
/* pixels */
"+++++++++++++++++++++++++++++++++++++++++++++++++++++++++++++++++++++++++++++++++++++++++",
"+++++++++++++++++++++++++++++++++++++++++++++++++++++++++++++++++++++++++++++++++++++++++",
"+++++++++++++++++++++++++++++++++++++++++++++++++++++++++++++++++++++++++++++++++++++++++",
"+++++++++++++++++++++++++++++++++++++++++++++++++++++++++++++++++++++++++++++++++++++++++",
"+++++++++++++++++++++++++++++++++++++++++++++++++++++++++++++++++++++++++++++++++++++++++",
"+++++++++++++++++++++++++++++++++++++++++++++++++++++++++++++++++++++++++++++++++++++++++",
"+++++++++++++++++++++++++++++++++++++++++++++++++++++++++++++++++++++++++++++++++++++++++",
"+++++++++++++++++++++++++++++++++++++++++++++++++++++++++++++++++++++++++++++++++++++++++",
"+++++++++++++++++++++++++++++++++++++++++++++++++++++++++++++++++++++++++++++++++++++++++",
"+++++++++++++++++++++++++++++++++++++++++++++++++++++++++++++++++++++++++++++++++++++++++",
"+++++++++++++++++++++++++++++++++++++++++++++++++++++++++++++++++++++++++++++++++++++++++",
"+++++++++++++++++++++++++++++++++++++++++++++++++++++++++++++++++++++++++++++++++++++++++",
"++++++++++++++++++++++++++++++++++++++++++++O++++++++++++++++++++++++++++++++++++++++++++",
"++++++++++++++++++++++++++++++++++++++++++++O++++++++++++++++++++++++++++++++++++++++++++",
"+++++++++++++++++++++++++++++++++++++++++++.O.+++++++++++++++++++++++++++++++++++++++++++",
"+++++++++++++++++++++++++++++++++++++++++++.O.+++++++++++++++++++++++++++++++++++++++++++",
"+++++++++++++++++++++++++++++++++++++++++++oOo+++++++++++++++++++++++++++++++++++++++++++",
"++++++++++++++++++++++++++++++++++++++++++.OOO.++++++++++++++++++++++++++++++++++++++++++",
"++++++++++++++++++++++++++++++++++++++++++.OOO.++++++++++++++++++++++++++++++++++++++++++",
"++++++++++++++++++++++++++++++++++++++  ..OOOOO..  ++++++++++++++++++++++++++++++++++++++",
"+++++++++++++++++++++++++++++++++++ ..XXoOOOOOOOoXX.. +++++++++++++++++++++++++++++++++++",
"++++++++++++++++++++++++++++++++ ..XOOOOOOOOOOOOOOOOOX.. ++++++++++++++++++++++++++++++++",
"+++++++++++++++++++++++++++++++ XOOOOOOOOOOOOOOOOOOOOOOOX +++++++++++++++++++++++++++++++",
"+++++++++++++++++++++++++++++ .OOOOOOOOOOOOOOOOOOOOOOOOOOO. +++++++++++++++++++++++++++++",
"++++++++++++++++++++++++++++.XOOOOOOOOOOOOOOOOOOOOOOOOOOOOOX.++++++++++++++++++++++++++++",
"+++++++++++++++++++++++++++.XoOOOOOOOOOOOOOOOOOOOOOOOOOOOOOoX.+++++++++++++++++++++++++++",
"++++++++++++++++++++++++++.XXoOOOOOOOOOOOOoOOOoOOOOOOOOOOOOoXX.++++++++++++++++++++++++++",
"+++++++++++++++++++++++++.XXooOOOOOOOOOOOOoOOOoOOOOOOOOOOOOooXX.+++++++++++++++++++++++++",
"++++++++++++++++++++++++.XXoXoOOOOOOOOOOOoOOOOOoOOOOOOOOOOOoXoXX.++++++++++++++++++++++++",
"+++++++++++++++++++++++ XooooXoOOOOOOOOOOOOOOOOOOOOOOOOOOOoXooooX +++++++++++++++++++++++",
"+++++++++++++++++++++++.OOOOOooOOOOOOOOOOOOOOOOOOOOOOOOOOOooOOOOO.+++++++++++++++++++++++",
"++++++++++++++++++++++ OOOOOOOOoOOOoooOOOOOOOOOOOOOoooOOOoOOOOOOOO ++++++++++++++++++++++",
"+++++++++++++++++++++ XOOOOOOOOOooooOOoOOOOOOOOOOOoOOooooOOOOOOOOOX +++++++++++++++++++++",
"+++++++++++++++++++++.OOOOOOOOOOooOOOOOOOOOOOOOOOOOOOOOooOOOOOOOOOO.+++++++++++++++++++++",
"+++++++++++++++++++++.OOOOOOOOOOoOOOOOOOOOOOOOOOOOOOOOOOoOOOOOOOOOO.+++++++++++++++++++++",
"++++++++++++++++++++ XOOOOOOOOOooOOOOOOOOOOOOOOOOOOOOOOOooOOOOOOOOOX ++++++++++++++++++++",
"++++++++++++++++++++.OOOOOOOOOOoOOOOOOOOOOOOOOOOOOOOOOOOOoOOOOOOOOOO.++++++++++++++++++++",
"++++++++++++++++++++.OOOOOOOOOOoOOOOOOOOOOOOOOOOOOOOOOOOOoOOOOOOOOOO.++++++++++++++++++++",
"+++++++++++++++++++ XOOOOOOOOOOOoOOOOOOOOOOOOOOOOOOOOOOOoOOOOOOOOOOOX +++++++++++++++++++",
"+++++++++++++++++++ XOOOOOOOOOOOOOOOOOOOOOOOOOOOOOOOOOOOOOOOOOOOOOOOX +++++++++++++++++++",
"+++++++++++++++++++.oOOOOOOOOOOOOOOOOOOOOOOOOOOOOOOOOOOOOOOOOOOOOOOOo.+++++++++++++++++++",
"+++++++++++++++++++.OOOOOOOOoOOOOOOOOOOOOOOOOOOOOOOOOOOOOOOOoOOOOOOOO.+++++++++++++++++++",
"+++++++++++++++++..OOOOOOOooOOOOOOOOOOOOOOOOOOOOOOOOOOOOOOOOOooOOOOOOO..+++++++++++++++++",
"++++++++++++++..oOOOOOOOOOOOOOOOOOOOOOOOOOOOOOOOOOOOOOOOOOOOOOOOOOOOOOOOo..++++++++++++++",
"++++++++++++OOOOOOOOOOOOOOOOOOOOOOOOOOOOOOOOOOOOOOOOOOOOOOOOOOOOOOOOOOOOOOOOO++++++++++++",
"++++++++++++++..oOOOOOOOOOOOOOOOOOOOOOOOOOOOOOOOOOOOOOOOOOOOOOOOOOOOOOOOo..++++++++++++++",
"+++++++++++++++++..OOOOOOOooOOOOOOOOOOOOOOOOOOOOOOOOOOOOOOOOOooOOOOOOO..+++++++++++++++++",
"+++++++++++++++++++.OOOOOOOOoOOOOOOOOOOOOOOOOOOOOOOOOOOOOOOOoOOOOOOOO.+++++++++++++++++++",
"+++++++++++++++++++.oOOOOOOOOOOOOOOOOOOOOOOOOOOOOOOOOOOOOOOOOOOOOOOOo.+++++++++++++++++++",
"+++++++++++++++++++ XOOOOOOOOOOOOOOOOOOOOOOOOOOOOOOOOOOOOOOOOOOOOOOOX +++++++++++++++++++",
"+++++++++++++++++++ XOOOOOOOOOOOoOOOOOOOOOOOOOOOOOOOOOOOoOOOOOOOOOOOX +++++++++++++++++++",
"++++++++++++++++++++.OOOOOOOOOOoOOOOOOOOOOOOOOOOOOOOOOOOOoOOOOOOOOOO.++++++++++++++++++++",
"++++++++++++++++++++.OOOOOOOOOOoOOOOOOOOOOOOOOOOOOOOOOOOOoOOOOOOOOOO.++++++++++++++++++++",
"++++++++++++++++++++ XOOOOOOOOOooOOOOOOOOOOOOOOOOOOOOOOOooOOOOOOOOOX ++++++++++++++++++++",
"+++++++++++++++++++++.OOOOOOOOOOoOOOOOOOOOOOOOOOOOOOOOOOoOOOOOOOOOO.+++++++++++++++++++++",
"+++++++++++++++++++++.OOOOOOOOOOooOOOOOOOOOOOOOOOOOOOOOooOOOOOOOOOO.+++++++++++++++++++++",
"+++++++++++++++++++++ XOOOOOOOOOooooOOoOOOOOOOOOOOoOOooooOOOOOOOOOX +++++++++++++++++++++",
"++++++++++++++++++++++ OOOOOOOOoOOOoooOOOOOOOOOOOOOoooOOOoOOOOOOOO ++++++++++++++++++++++",
"+++++++++++++++++++++++.OOOOOooOOOOOOOOOOOOOOOOOOOOOOOOOOOooOOOOO.+++++++++++++++++++++++",
"+++++++++++++++++++++++ XooooXoOOOOOOOOOOOOOOOOOOOOOOOOOOOoXooooX +++++++++++++++++++++++",
"++++++++++++++++++++++++.XXoXoOOOOOOOOOOOoOOOOOoOOOOOOOOOOOoXoXX.++++++++++++++++++++++++",
"+++++++++++++++++++++++++.XXooOOOOOOOOOOOOoOOOoOOOOOOOOOOOOooXX.+++++++++++++++++++++++++",
"++++++++++++++++++++++++++.XXoOOOOOOOOOOOOoOOOoOOOOOOOOOOOOoXX.++++++++++++++++++++++++++",
"+++++++++++++++++++++++++++.XoOOOOOOOOOOOOOOOOOOOOOOOOOOOOOoX.+++++++++++++++++++++++++++",
"++++++++++++++++++++++++++++.XOOOOOOOOOOOOOOOOOOOOOOOOOOOOOX.++++++++++++++++++++++++++++",
"+++++++++++++++++++++++++++++ .OOOOOOOOOOOOOOOOOOOOOOOOOOO. +++++++++++++++++++++++++++++",
"+++++++++++++++++++++++++++++++ XOOOOOOOOOOOOOOOOOOOOOOOX +++++++++++++++++++++++++++++++",
"++++++++++++++++++++++++++++++++ ..XOOOOOOOOOOOOOOOOOX.. ++++++++++++++++++++++++++++++++",
"+++++++++++++++++++++++++++++++++++ ..XXoOOOOOOOoXX.. +++++++++++++++++++++++++++++++++++",
"++++++++++++++++++++++++++++++++++++++  ..OOOOO..  ++++++++++++++++++++++++++++++++++++++",
"++++++++++++++++++++++++++++++++++++++++++.OOO.++++++++++++++++++++++++++++++++++++++++++",
"++++++++++++++++++++++++++++++++++++++++++.OOO.++++++++++++++++++++++++++++++++++++++++++",
"+++++++++++++++++++++++++++++++++++++++++++oOo+++++++++++++++++++++++++++++++++++++++++++",
"+++++++++++++++++++++++++++++++++++++++++++.O.+++++++++++++++++++++++++++++++++++++++++++",
"+++++++++++++++++++++++++++++++++++++++++++.O.+++++++++++++++++++++++++++++++++++++++++++",
"++++++++++++++++++++++++++++++++++++++++++++O++++++++++++++++++++++++++++++++++++++++++++",
"++++++++++++++++++++++++++++++++++++++++++++O++++++++++++++++++++++++++++++++++++++++++++",
"+++++++++++++++++++++++++++++++++++++++++++++++++++++++++++++++++++++++++++++++++++++++++",
"+++++++++++++++++++++++++++++++++++++++++++++++++++++++++++++++++++++++++++++++++++++++++",
"+++++++++++++++++++++++++++++++++++++++++++++++++++++++++++++++++++++++++++++++++++++++++",
"+++++++++++++++++++++++++++++++++++++++++++++++++++++++++++++++++++++++++++++++++++++++++",
"+++++++++++++++++++++++++++++++++++++++++++++++++++++++++++++++++++++++++++++++++++++++++",
"+++++++++++++++++++++++++++++++++++++++++++++++++++++++++++++++++++++++++++++++++++++++++",
"+++++++++++++++++++++++++++++++++++++++++++++++++++++++++++++++++++++++++++++++++++++++++",
"+++++++++++++++++++++++++++++++++++++++++++++++++++++++++++++++++++++++++++++++++++++++++",
"+++++++++++++++++++++++++++++++++++++++++++++++++++++++++++++++++++++++++++++++++++++++++",
"+++++++++++++++++++++++++++++++++++++++++++++++++++++++++++++++++++++++++++++++++++++++++",
"+++++++++++++++++++++++++++++++++++++++++++++++++++++++++++++++++++++++++++++++++++++++++",
"+++++++++++++++++++++++++++++++++++++++++++++++++++++++++++++++++++++++++++++++++++++++++"
};
