/* XPM */
static xpm_string_t explosion6_xpm[] = {
"89 89 6 1 ",
"  c #FF3139",
". c #FF7E00",
"X c #FFC20E",
"o c #FFF200",
"O c #FFF9BD",
"+ c None",
/* pixels */
"+++++++++++++++++++++++++++++++++++++++++++++++++++++++++++++++++++++++++++++++++++++++++",
"+++++++++++++++++++++++++++++++++++++++++++++++++++++++++++++++++++++++++++++++++++++++++",
"+++++++++++++++++++++++++++++++++++++++++++++++++++++++++++++++++++++++++++++++++++++++++",
"++++++++++++++++++++++++++++++++++++++++++++o++++++++++++++++++++++++++++++++++++++++++++",
"++++++++++++++++++++++++++++++++++++++++++++O++++++++++++++++++++++++++++++++++++++++++++",
"++++++++++++++++++++++++++++++++++++++++++++O++++++++++++++++++++++++++++++++++++++++++++",
"++++++++++++++++++++++++++++++++++++++++++++o++++++++++++++++++++++++++++++++++++++++++++",
"++++++++++++++++++++++++++++++++++++++++++++O++++++++++++++++++++++++++++++++++++++++++++",
"+++++++++++++++++++++++++++++++++++++++++++XOX+++++++++++++++++++++++++++++++++++++++++++",
"+++++++++++++++++++++++++++++++++++++++++++oOo+++++++++++++++++++++++++++++++++++++++++++",
"++++++++++++++++++++++++++++++++++XX ++++ XOOOX ++++ XX++++++++++++++++++++++++++++++++++",
"++++++++++++++++++++++++++++++++ XoXXooXXoOOOOOoXXooXXoX ++++++++++++++++++++++++++++++++",
"++++++++++++++++++++++++++++++   XooOOOOOOOOOOOOOOOOOooX   ++++++++++++++++++++++++++++++",
"+++++++++++++++++++++++++++++ XooOOOOOOOOOOOOOOOOOOOOOOOooX +++++++++++++++++++++++++++++",
"+++++++++++++++++++++++++++  oOOOOOOOOOOOOOOOOOOOOOOOOOOOOOo  +++++++++++++++++++++++++++",
"+++++++++++++++++++++++++  ooOOOOOOOOOOOOOOOOOOOOOOOOOOOOOOOoo  +++++++++++++++++++++++++",
"++++++++++++++++++++++++o.oOOOOOOOOOOOOOOOOOOOOOOOOOOOOOOOOOOOo.o++++++++++++++++++++++++",
"+++++++++++++++++++++++oooOOOOOOOOOOOOOOOOOOOOOOOOOOOOOOOOOOOOOooo+++++++++++++++++++++++",
"++++++++++++++++++++++XoOOOOOOOOOOOOOOOOOOOOOOOOOOOOOOOOOOOOOOOOOoX++++++++++++++++++++++",
"++++++++++++++++++++++oOOOOOOOOo OOOOOOOOOOOOOOOOOOOOOOO oOOOOOOOOo++++++++++++++++++++++",
"+++++++++++++++++++++oOOOOOOOXXoo+OOOOOOOOOOoOOOOOOOOOO+ooXXOOOOOOOo+++++++++++++++++++++",
"++++++++++++++++++++oOOOOOOOOOOoo +XOOOOOOOOOOOOOOOOOX+ ooOOOOOOOOOOo++++++++++++++++++++",
"++++++++++++++++++XoOOooOOOOOOOOoX++.OOOOOOOOOOOOOOO.++XoOOOOOOOOooOOoX++++++++++++++++++",
"+++++++++++++++++ooOooo++ OOOOOOoX+++.OOOOOOOOOOOOO.+++XoOOOOOO ++oOoOoo+++++++++++++++++",
"++++++++++++++++ooOOOOO+++++..OOXX++++XOOOOOOOOOOOX++++XXOO..+++++OOOOOoo++++++++++++++++",
"+++++++++++++++ .oOOOOO ++++++..Xo+++++XOOOOOOOOOX+++++oX..++++++ OOOOOo. +++++++++++++++",
"+++++++++++++++ oOOOOOOO+++++++..o+++++ OOOOOOOOO +++++o..+++++++OOOOOOOo +++++++++++++++",
"++++++++++++++ oOOOOOOOO+++++++++.++++++XOOOOOOOX++++++.+++++++++OOOOOOOOo ++++++++++++++",
"++++++++++++++ oOOOOOOOO.++++++++.++++++XOOOOOOOX++++++.++++++++.OOOOOOOOo ++++++++++++++",
"+++++++++++++ oOOOOOXOOO.+++++++++++++++ OOOOOOO +++++++++++++++.OOOXOOOOOo +++++++++++++",
"++++++++++++ XOOOOOOXOOOO.+++++++++++++++XOOOOOX+++++++++++++++.OOOOXOOOOOOX ++++++++++++",
"++++++++++++ oOOOOOoooOOO..++++++++++++++ OOOOO ++++++++++++++..OOOoooOOOOOo ++++++++++++",
"+++++++++++  oOOOOO ooooXX.++++++++++++++ XoOoX ++++++++++++++.XXoooo OOOOOo  +++++++++++",
"+++++++++++XXOOOOOOO+ XXXoo..++++++++++++ XoOoX ++++++++++++..ooXXX +OOOOOOOXX+++++++++++",
"++++++++++XooOOOOOOOO+++++++++++++++++++++XoOoX+++++++++++++++++++++OOOOOOOOooX++++++++++",
"++++++++++XXoOOOOOOOOX++++++++++++++++++++ ooo ++++++++++++++++++++XOOOOOOOOoXX++++++++++",
"++++++++++ XOOOOOOOOOO.++++++++++++++++++++XOX++++++++++++++++++++.OOOOOOOOOOX ++++++++++",
"+++++++++++oOOOOOOOOOOO.+++++++++++++++++++XoX+++++++++++++++++++.OOOOOOOOOOOo+++++++++++",
"+++++++++++oOOOOOOOOOOOOX++++++++++++++++++oOo++++++++++++++++++XOOOOOOOOOOOOo+++++++++++",
"+++++++++++XOOOOOOOOOOOOOX +++++++++++++++ oOo +++++++++++++++ XOOOOOOOOOOOOOX+++++++++++",
"+++++++++++XOOOOOOOOOOOOOOOXX ++++++++++++XoOoX++++++++++++ XXOOOOOOOOOOOOOOOX+++++++++++",
"++++++++++ oOOOOOOOOOOOOOOOOOOX   +++++++XoOOOoX+++++++   XOOOOOOOOOOOOOOOOOOo ++++++++++",
"++++++++++XOOOOOOOOOOOOOOOOOOOOOXXX +++ XooOOOooX +++ XXXOOOOOOOOOOOOOOOOOOOOOX++++++++++",
"++++++++XoOOOOOOOOOOOOOOOOOOOOOOooooXXoooOOOOOOOoooXXooooOOOOOOOOOOOOOOOOOOOOOOoX++++++++",
"+++oOOoOOOOOOOOOOOOOoOOOOOOOOOOOOOOoOoOOOOOOOOOOOOOoOoOOOOOOOOOOOOOOoOOOOOOOOOOOOOoOOo+++",
"++++++++XoOOOOOOOOOOOOOOOOOOOOOOooooXXoooOOOOOOOoooXXooooOOOOOOOOOOOOOOOOOOOOOOoX++++++++",
"++++++++++XOOOOOOOOOOOOOOOOOOOOOXXX +++ XooOOOooX +++ XXXOOOOOOOOOOOOOOOOOOOOOX++++++++++",
"++++++++++ oOOOOOOOOOOOOOOOOOOX   +++++++XoOOOoX+++++++   XOOOOOOOOOOOOOOOOOOo ++++++++++",
"+++++++++++XOOOOOOOOOOOOOOOXX ++++++++++++XoOoX++++++++++++ XXOOOOOOOOOOOOOOOX+++++++++++",
"+++++++++++XOOOOOOOOOOOOOX +++++++++++++++ oOo +++++++++++++++ XOOOOOOOOOOOOOX+++++++++++",
"+++++++++++oOOOOOOOOOOOOX++++++++++++++++++oOo++++++++++++++++++XOOOOOOOOOOOOo+++++++++++",
"+++++++++++oOOOOOOOOOOO.+++++++++++++++++++XoX+++++++++++++++++++.OOOOOOOOOOOo+++++++++++",
"++++++++++ XOOOOOOOOOO.++++++++++++++++++++XOX++++++++++++++++++++.OOOOOOOOOOX ++++++++++",
"++++++++++XXoOOOOOOOOX++++++++++++++++++++ ooo ++++++++++++++++++++XOOOOOOOOoXX++++++++++",
"++++++++++XooOOOOOOOO+++++++++++++++++++++XoOoX+++++++++++++++++++++OOOOOOOOooX++++++++++",
"+++++++++++XXOOOOOOO+ XXXoo..++++++++++++ XoOoX ++++++++++++..ooXXX +OOOOOOOXX+++++++++++",
"+++++++++++  oOOOOO ooooXX.++++++++++++++ XoOoX ++++++++++++++.XXoooo OOOOOo  +++++++++++",
"++++++++++++ oOOOOOoooOOO..++++++++++++++ OOOOO +++++++++++++++.OOOoooOOOOOo ++++++++++++",
"++++++++++++ XOOOOOOXOOOO.+++++++++++++++XOOOOOX++++++++++++++++OOOOXOOOOOOX ++++++++++++",
"+++++++++++++ oOOOOOXOOO.+++++++++++++++ OOOOOOO +++++++++++++++.OOOXOOOOOo +++++++++++++",
"++++++++++++++ oOOOOOOOO.++++++++.++++++XOOOOOOOX++++++.+++++++++OOOOOOOOo ++++++++++++++",
"++++++++++++++ oOOOOOOOO+++++++++.++++++XOOOOOOOX++++++.+++++++++OOOOOOOOo ++++++++++++++",
"+++++++++++++++ oOOOOOOO+++++++..o+++++ OOOOOOOOO +++++o..+++++++OOOOOOOo +++++++++++++++",
"+++++++++++++++ .oOOOOO ++++++..Xo+++++XOOOOOOOOOX+++++oX..++++++ OOOOOo. +++++++++++++++",
"++++++++++++++++ooOOOOO+++++..OOXX++++XOOOOOOOOOOOX++++XXOO..+++++OOOOOoo++++++++++++++++",
"+++++++++++++++++ooOooo++ OOOOOOoX+++.OOOOOOOOOOOOO.+++XoOOOOOO ++oOOOoo+++++++++++++++++",
"++++++++++++++++++XoOOooOOOOOOOOoX++.OOOOOOOOOOOOOOO.++XoOOOOOOOOooOOoX++++++++++++++++++",
"++++++++++++++++++++oOOOOOOOOOOoo +XOOOOOOOOOOOOOOOOOX+ ooOOOOOOOOOOo++++++++++++++++++++",
"+++++++++++++++++++++oOOOOOOOXXoo+OOOOOOOOOOoOOOOOOOOOO+ooXXOOOOOOOo+++++++++++++++++++++",
"++++++++++++++++++++++oOOOOOOOOo OOOOOOOOOOOOOOOOOOOOOOO oOOOOOOOOo++++++++++++++++++++++",
"++++++++++++++++++++++XoOOOOOOOOOOOOOOOOOOOOOOOOOOOOOOOOOOOOOOOOOoX++++++++++++++++++++++",
"+++++++++++++++++++++++oooOOOOOOOOOOOOOOOOOOOOOOOOOOOOOOOOOOOOOooo+++++++++++++++++++++++",
"++++++++++++++++++++++++o.oOOOOOOOOOOOOOOOOOOOOOOOOOOOOOOOOOOOo.o++++++++++++++++++++++++",
"+++++++++++++++++++++++++  ooOOOOOOOOOOOOOOOOOOOOOOOOOOOOOOOoo  +++++++++++++++++++++++++",
"+++++++++++++++++++++++++++  oOOOOOOOOOOOOOOOOOOOOOOOOOOOOOo  +++++++++++++++++++++++++++",
"+++++++++++++++++++++++++++++ XooOOOOOOOOOOOOOOOOOOOOOOOooX +++++++++++++++++++++++++++++",
"++++++++++++++++++++++++++++++   XooOOOOOOOOOOOOOOOOOooX   ++++++++++++++++++++++++++++++",
"++++++++++++++++++++++++++++++++ XoXXooXXoOOOOOoXXooXXoX ++++++++++++++++++++++++++++++++",
"++++++++++++++++++++++++++++++++++XX ++++ XOOOX ++++ XX++++++++++++++++++++++++++++++++++",
"+++++++++++++++++++++++++++++++++++++++++++oOo+++++++++++++++++++++++++++++++++++++++++++",
"+++++++++++++++++++++++++++++++++++++++++++XOX+++++++++++++++++++++++++++++++++++++++++++",
"++++++++++++++++++++++++++++++++++++++++++++O++++++++++++++++++++++++++++++++++++++++++++",
"++++++++++++++++++++++++++++++++++++++++++++o++++++++++++++++++++++++++++++++++++++++++++",
"++++++++++++++++++++++++++++++++++++++++++++O++++++++++++++++++++++++++++++++++++++++++++",
"++++++++++++++++++++++++++++++++++++++++++++O++++++++++++++++++++++++++++++++++++++++++++",
"++++++++++++++++++++++++++++++++++++++++++++o++++++++++++++++++++++++++++++++++++++++++++",
"+++++++++++++++++++++++++++++++++++++++++++++++++++++++++++++++++++++++++++++++++++++++++",
"+++++++++++++++++++++++++++++++++++++++++++++++++++++++++++++++++++++++++++++++++++++++++",
"+++++++++++++++++++++++++++++++++++++++++++++++++++++++++++++++++++++++++++++++++++++++++"
};
