/* XPM */
static xpm_string_t green1_bullet_xpm[] = {
"30 30 3 1",
" 	c None",
".	c #00EF09",
"+	c #FFFFFF",
"          ..........          ",
"        ..............        ",
"      ..................      ",
"     ....................     ",
"    ......................    ",
"   ........................   ",
"  ..........................  ",
"  ..........................  ",
" ............................ ",
" ............................ ",
"..............................",
"..............................",
"..............++..............",
".............++++.............",
"............++++++............",
"............++++++............",
".............++++.............",
"..............++..............",
"..............................",
"..............................",
" ............................ ",
" ............................ ",
"  ..........................  ",
"  ..........................  ",
"   ........................   ",
"    ......................    ",
"     ....................     ",
"      ..................      ",
"        ..............        ",
"          ..........          "};
