/* XPM */
static xpm_string_t hs_number3_xpm[] = {
"77 45 100 2 ",
"   c #A87824",
".  c #AC7F28",
"X  c #AF842B",
"o  c #A98F2B",
"O  c #B2892E",
"+  c #AE942E",
"@  c #B3962F",
"#  c #B38C30",
"$  c #B49332",
"%  c #B89535",
"&  c #B29B33",
"*  c #B89B34",
"=  c #BD9C39",
"-  c #BBA036",
";  c #BEA63C",
":  c #BEA83B",
">  c #C0A53C",
",  c #C3AA3F",
"<  c #978650",
"1  c #9F8C51",
"2  c #A18E51",
"3  c #A69053",
"4  c #AC9756",
"5  c #A79A54",
"6  c #AE9D55",
"7  c #B29D59",
"8  c #B2A657",
"9  c #B5A857",
"0  c #B8A45D",
"q  c #B6AC58",
"w  c #BEAB61",
"e  c #C3A740",
"r  c #C6AE42",
"t  c #C8AC42",
"y  c #C4B141",
"u  c #CCB347",
"i  c #CBB846",
"p  c #CFB649",
"a  c #CDBC4B",
"s  c #D2BE4D",
"d  c #C7AD50",
"f  c #C8AF54",
"g  c #CFBD53",
"h  c #C0B75B",
"j  c #CAB25B",
"k  c #C6B564",
"l  c #CDB664",
"z  c #CABD64",
"x  c #C5B368",
"c  c #CDBB6E",
"v  c #D3BF6F",
"b  c #CDC14C",
"n  c #D2C24F",
"m  c #CCC35E",
"M  c #CFC95F",
"N  c #D3C450",
"B  c #D6C953",
"V  c #D9CE56",
"C  c #D9D257",
"Z  c #DCD45A",
"A  c #DFD95D",
"S  c #E1DC5F",
"D  c #CFC560",
"F  c #D2CD60",
"G  c #D5C36E",
"H  c #D9CD6C",
"J  c #D7D162",
"K  c #DAD464",
"L  c #DCD963",
"P  c #DBD06F",
"I  c #DFDA68",
"U  c #D4C375",
"Y  c #D8C775",
"T  c #DCCD7B",
"R  c #DED178",
"E  c #E2DE61",
"W  c #E2DD6A",
"Q  c #E2DB71",
"!  c #E1D57F",
"~  c #E2D978",
"^  c #E6E564",
"/  c #E8E767",
"(  c #E8E866",
")  c #E6E36A",
"_  c #E8E769",
"`  c #E9E86B",
"'  c #E7E272",
"]  c #EAE772",
"[  c #ECEA73",
"{  c #EBE57B",
"}  c #EEEA7C",
"|  c #E1D380",
" . c #E6DA84",
".. c #EBE383",
"X. c #EFEA81",
"o. c #ECE28A",
"O. c #F1E68E",
"+. c #F2EB8C",
"@. c #F4EC92",
"#. c None",
/* pixels */
"#.#.                                                                                #.#.#.#.#.#.#.#.#.#.#.#.#.#.#.#.#.#.#.#.#.#.#.#.#.#.#.#.#.#.#.#.#.#.#.",
"#.                                                                                          #.#.#.#.#.#.#.#.#.#.#.#.#.#.#.#.#.#.#.#.#.#.#.#.#.#.#.#.#.#.#.",
"      a ( ( ( ( ( ( ( ( ( ( / ^ ( ( ( ( ) ( ( ( ( ( ( ( ( ( ( ( ( ( ( ( / ^ A C n r % .         #.#.#.#.#.#.#.#.#.#.#.#.#.#.#.#.#.#.#.#.#.#.#.#.#.#.#.#.#.",
"    a ( ( ( ( ( ( ( ( ( ( ( ( ( ( ( ( ( ( ( ( ( ( ( ( ( ( ( ( ( ( ( ( ( / ( ( ( ( ( ( ^ N =         #.#.#.#.#.#.#.#.#.#.#.#.#.#.#.#.#.#.#.#.#.#.#.#.#.#.#.",
"    a _ q < < < < < < < < < < < < < < < < < < < < < < < < < < < < < < < < 1 5 8 h M ^ ( ( ( A e       #.#.#.#.#.#.#.#.#.#.#.#.#.#.#.#.#.#.#.#.#.#.#.#.#.#.",
"    a ( / 6 1 1 1 1 1 1 1 1 1 1 1 1 1 1 1 1 1 1 1 1 1 1 1 1 1 1 1 1 1 1 1 1 1 1 1 1 1 9 M ( ) ) C #     #.#.#.#.#.#.#.#.#.#.#.#.#.#.#.#.#.#.#.#.#.#.#.#.#.",
"      C ( E 4 3 3 3 3 3 3 3 3 3 3 3 3 3 3 3 3 3 3 3 3 3 3 3 3 3 3 3 3 3 3 3 3 3 3 3 3 3 3 6 D ) ( / *     #.#.#.#.#.#.#.#.#.#.#.#.#.#.#.#.#.#.#.#.#.#.#.#.",
"#.    X E ( J 4 4 4 4 4 4 4 4 4 4 4 4 4 4 4 4 4 4 4 4 4 4 4 4 4 4 4 4 4 4 4 4 4 4 4 4 4 4 4 4 0 L ( / =     #.#.#.#.#.#.#.#.#.#.#.#.#.#.#.#.#.#.#.#.#.#.#.",
"#.#.    $ / ( D 6 7 7 7 7 7 7 7 6 7 7 7 7 7 7 7 7 7 7 7 7 7 7 6 7 7 7 7 7 7 7 7 7 7 7 7 7 7 7 7 8 J ( ( =     #.#.#.#.#.#.#.#.#.#.#.#.#.#.#.#.#.#.#.#.#.#.",
"#.#.#.    t ( / z 0 0 0 0 0 0 0 0 0 0 0 0 0 0 0 0 0 0 0 0 0 0 0 0 0 0 0 0 0 0 0 0 0 0 0 0 0 0 0 0 0 J ( ^ #     #.#.#.#.#.#.#.#.#.#.#.#.#.#.#.#.#.#.#.#.#.",
"#.#.#.#.    n / / k w w w w w w w w w w w w w w w w w w w w w w w w w w w w w w w w w w w w w w w w w I / V     #.#.#.#.#.#.#.#.#.#.#.#.#.#.#.#.#.#.#.#.#.",
"#.#.#.#.    . Z ^ ^ k k x x x x x x x x x x x x x x x x x x x x x x x x x x x x x x x x x x x x x k x z / / %     #.#.#.#.#.#.#.#.#.#.#.#.#.#.#.#.#.#.#.#.",
"#.#.#.#.#.    O ^ ( L c c c c c c c c c c c c c c c c c c c c c c c c c c c c c c c c c c c c c c c c c E / s     #.#.#.#.#.#.#.#.#.#.#.#.#.#.#.#.#.#.#.#.",
"#.#.#.#.#.#.    * / ( ( ) / ( / ( ( ( ( ( ( ( ( ( ( ( ( ( ( ( ( ( ( ( ( / I P U U U U U U U U U U U U U P ( A     #.#.#.#.#.#.#.#.#.#.#.#.#.#.#.#.#.#.#.#.",
"#.#.#.#.#.#.#.    % / ( ( / ( ( ( ( ( ( ( ( ` ` ( ( ( ( ( ( ( ( ( ( ( / ( ( ( I T T T T T T U T T T T T T ^ ^     #.#.#.#.#.#.#.#.#.#.#.#.#.#.#.#.#.#.#.#.",
"#.#.#.#.#.#.#.#.                                                      X % n ( / | | | | | | | | | | | | ! / ^     #.#.#.#.#.#.#.#.#.#.#.#.#.#.#.#.#.#.#.#.",
"#.#.#.#.#.#.#.#.#.                              X                     . % n / )  . . . . . . . . . . . . .( ^     #.#.#.#.#.#.#.#.#.#.#.#.#.#.#.#.#.#.#.#.",
"#.#.#.#.#.#.#.#.#.#.#.    . Z / ( ( ( ( ( ( ( / ( ( ( ( ( ( ( ( ^ / / / / ( / ..O.O.o.o.O.o.o.o.o.o.o.o...( ^     #.#.#.#.#.#.#.#.#.#.#.#.#.#.#.#.#.#.#.#.",
"#.#.#.#.#.#.#.#.#.#.#.  . A / / ( ( ( ( ( ( ( ( ( ( ( [ ( ( ( ( ( ( / / / ] @.@.O.O.O.O.O.O.@.@.O.O.O.O.{ ( Z     #.#.#.#.#.#.#.#.#.#.#.#.#.#.#.#.#.#.#.#.",
"#.#.#.#.#.#.#.#.#.#.#.    Z / +.O.@.@.O.@.O.O.@.@.@.@.@.+.+.O.@.@.O.@.O.@.@.@.@.O.O.O.@.O.@.@.@.O.@.@.O._ / u     #.#.#.#.#.#.#.#.#.#.#.#.#.#.#.#.#.#.#.#.",
"#.#.#.#.#.#.#.#.#.#.#.  . Z ( ` @.@.@.@.@.@.@.@.@.@.@.@.@.@.@.@.@.@.@.@.@.@.@.@.@.@.@.@.@.@.@.@.@.@.@.X.( ( O     #.#.#.#.#.#.#.#.#.#.#.#.#.#.#.#.#.#.#.#.",
"#.#.#.#.#.#.#.#.#.#.#.    X ^ ( } @.@.@.@.@.@.@.@.@.@.@.@.@.@.@.@.@.@.@.@.@.@.@.@.@.@.@.@.@.@.@.@.@.+._ ( a     #.#.#.#.#.#.#.#.#.#.#.#.#.#.#.#.#.#.#.#.#.",
"#.#.#.#.#.#.#.#.#.#.#.#.    % ( ( } @.@.@.@.@.@.@.@.@.@.@.@.@.@.@.@.@.@.@.@.@.@.@.@.@.@.@.@.@.@.@.@.{ / A X     #.#.#.#.#.#.#.#.#.#.#.#.#.#.#.#.#.#.#.#.#.",
"#.#.#.#.#.#.#.#.#.#.#.#.#.    r ( ( X.@.@.@.@.@.@.@.@.@.@.@.@.O.@.@.@.@.@.@.@.@.@.@.@.@.O.@.@.@.@.@.../ ( =     #.#.#.#.#.#.#.#.#.#.#.#.#.#.#.#.#.#.#.#.#.",
"#.#.#.#.#.#.#.#.#.#.#.#.#.#.    B ( ( X.o.o.o.o.o.o.o.O.o.o.O.o.+.O.o.O.o.o.O.o.o.o.o.o.o.o.o.o.o.o.o.] ( E .   #.#.#.#.#.#.#.#.#.#.#.#.#.#.#.#.#.#.#.#.#.",
"#.#.#.#.#.#.#.#.#.#.#.#.#.#.    X C ( ( ..o.o.o.o.o...o...o.o.o.o.o.o.o...o.o.o.o...o.o.o.o.o...o.o.o..._ ( >     #.#.#.#.#.#.#.#.#.#.#.#.#.#.#.#.#.#.#.#.",
"#.#.#.#.#.#.#.#.#.#.#.#.#.#.#.    X ^ / `  . . . . . . . . . . . . . . . . .!  . . . . . . . . . . . . .' ( B     #.#.#.#.#.#.#.#.#.#.#.#.#.#.#.#.#.#.#.#.",
"#.#.#.#.#.#.#.#.#.#.#.#.#.#.#.#.    $ ^ ( Q ! ! ! ! ! R ! ! ! ! R  .R ! ! ! ! ! ! ! ! ! ! ! ! ! | R ! ! ~ ( S     #.#.#.#.#.#.#.#.#.#.#.#.#.#.#.#.#.#.#.#.",
"#.#.                                  > ( ( ( ( ( ( ( ( ( ( ( ( ( ( ( ( ( ( ) W Q T T ! R T T T R R T R R ( ^     #.#.#.#.#.#.                  #.#.#.#.#.",
"#.                                      e ( ( ( ( ( ( ( ( ( ( ( ( ( ( ( ( ( ( ` ( W Y Y Y Y Y Y Y Y Y Y Y ( ^     #.#.#.#.                          #.#.#.",
"      a / ( ( ( ( ( ( ( / ( ( ( / ( ( ( ( ( ( ( ( ( ( ( ( ( ( ( ( ( ( ( ( ( ( ( ^ E v v v v v v v v U v G ( /     #.#.#.      = B S ^ / / S B =       #.#.",
"    a / / ( ( ( ( ( ( ( ( ( ( ( ( ( ( ( ( ( ( ( ( ( ( ( ( ( ( ( ( ( ( ( ( ( W L H l c c l l l j j j f d g ( S     #.#.      n ( ( ( ( ( ( ( ( ( n       #.",
"    b ( i * * * * @ * @ * * * * * * @ * * * * * * * * % * * * & & * * * * * @ * & * * * * * @ % * * @ * B ( B     #.#.    N ( ( C , - * - y V ^ ( N     #.",
"    a ( ^ > @ + @ @ @ @ @ @ @ + @ @ @ @ @ @ + + @ @ @ + + @ @ @ + + @ @ @ @ @ @ @ @ + + @ @ @ @ @ @ @ - ^ ( =     #.    t ( / y @ + @ @ @ @ @ y ^ ( ,     ",
"      V ( S & + @ @ + o + + + + + + + + + + + + + + + + + + + + + + + + + + + + + + + + + + + + + + @ V ( A     #.#.    A ( a + + o + + + + + + a ( S     ",
"#.    X S ( C + o o o o o o o o o o o o o o o o o o o o o o o o o o o o o o o o o o o o o o o o o o b ( ( %     #.#.    ^ ( & o o o o + o o o o & ( ^     ",
"#.#.    % ^ ( n + + + @ @ + + @ + + + + + + + @ + + + + @ @ @ @ + + + @ + + + + @ @ + + + + + + + n ( ( ,     #.#.#.    ^ ( + + + + + + + + + + @ ( ^     ",
"#.#.#.    > ( ( i * - * * = = * * * = * - * - * * * * * * * & * * - * = * * * * * * * - - = * : C ( ( ,     #.#.#.#.    ^ ( : * * - - * * = * = : ( ^     ",
"#.#.#.#.    a ( ^ i > > > > > > > > > > > > > > > > > > > > > > > > > > > , > > > > > > ; e N / ( ^ >     #.#.#.#.#.    S ( B > > > > > > > > > N ( A     ",
"#.#.#.#.      V ( E u , t t t t , u , , t t t t t t t t t t t t t t t t , t t , t t t a C ( ( ( A *     #.#.#.#.#.#.    r ( ^ n t t t t t t t s ( ( y     ",
"#.#.#.#.#.    X S ( S u u u u u p u u u u u u u u u u u u u u u p p u u p p s N V S ^ / / / S t .     #.#.#.#.#.#.#.#.    N ( ( A s p u p N A ( ( N     #.",
"#.#.#.#.#.#.    # ^ ( ( ( ( ( ( ( ( ( ( ( ( ( ( ( ( ( ( ( ( ( ( ( ( ( ( ^ ^ ( ( ( ( ^ ^ B > .       #.#.#.#.#.#.#.#.#.      N ( ( ^ ( ( ( ( ( ( N       #.",
"#.#.#.#.#.#.#.    % ( ( ( ( ( ( ( ( ( ( ( ( ( ( ( ( ( / ( ( ( ( ( / ( ( / ^ S C N t = .         #.#.#.#.#.#.#.#.#.#.#.#.      = N ^ / / ^ E B =       #.#.",
"#.#.#.#.#.#.#.#.                                                                            #.#.#.#.#.#.#.#.#.#.#.#.#.#.#.                          #.#.#.",
"#.#.#.#.#.#.#.#.#.                                                                    #.#.#.#.#.#.#.#.#.#.#.#.#.#.#.#.#.#.#.#.                  #.#.#.#.#."
};
