/* XPM */
static xpm_string_t hs_number4_xpm[] = {
"79 45 201 2 ",
"   c #A87824",
".  c #A87924",
"X  c #A97925",
"o  c #A97A25",
"O  c #AA7B26",
"+  c #AB7D27",
"@  c #AB7E27",
"#  c #AD8029",
"$  c #AD8229",
"%  c #AF852B",
"&  c #A98F2B",
"*  c #B0862C",
"=  c #B28A2E",
"-  c #AE932D",
";  c #AF952F",
":  c #B3962F",
">  c #B48D30",
",  c #B58F31",
"<  c #B79233",
"1  c #B09630",
"2  c #B89434",
"3  c #B99636",
"4  c #B19B33",
"5  c #B89A32",
"6  c #B89B32",
"7  c #B89D36",
"8  c #BC9B38",
"9  c #BD9C39",
"0  c #BD9D3A",
"q  c #BE9F3B",
"w  c #BBA036",
"e  c #BEA63C",
"r  c #BEA73C",
"t  c #C0A23D",
"y  c #C0A33D",
"u  c #C0A53C",
"i  c #C3A73F",
"p  c #978650",
"a  c #9F8C51",
"s  c #9F8F52",
"d  c #A69053",
"f  c #AC9756",
"g  c #B09C57",
"h  c #B29D59",
"j  c #AFA155",
"k  c #B8A45D",
"l  c #BBAA5B",
"z  c #BEAB61",
"x  c #BFAD61",
"c  c #C4AA41",
"v  c #C5AF40",
"b  c #C6AD43",
"n  c #C6AE43",
"m  c #C7AE44",
"M  c #C8AC42",
"N  c #C4B141",
"B  c #C8B145",
"V  c #CAB344",
"C  c #CDB347",
"Z  c #CAB446",
"A  c #CAB447",
"S  c #CBB648",
"D  c #CFB649",
"F  c #CDB74F",
"G  c #CEBB4B",
"H  c #CCBF4A",
"J  c #CFBD4C",
"K  c #D1BE4C",
"L  c #D2BF4D",
"P  c #C0B35A",
"I  c #D0BB58",
"U  c #CDB765",
"Y  c #CEB767",
"T  c #C8BA60",
"R  c #C9B967",
"E  c #C5B368",
"W  c #CEB868",
"Q  c #CFB869",
"!  c #CFB96A",
"~  c #CDBB6E",
"^  c #D2BF61",
"/  c #D3BF6F",
"(  c #D4C14F",
")  c #CBC55E",
"_  c #CEC55F",
"`  c #D2C250",
"'  c #D2C350",
"]  c #D3C451",
"[  c #D4C751",
"{  c #D4C652",
"}  c #D3C155",
"|  c #D5C853",
" . c #D6C853",
".. c #D6C954",
"X. c #D8CE54",
"o. c #D9CE56",
"O. c #D9CE57",
"+. c #D6C55F",
"@. c #DAD058",
"#. c #DCD45A",
"$. c #DDD65B",
"%. c #DFD65B",
"&. c #DED85C",
"*. c #DFD85C",
"=. c #DFD95D",
"-. c #E1DC5F",
";. c #D3CA63",
":. c #D5C269",
">. c #D4C76B",
",. c #D8C869",
"<. c #D9D661",
"1. c #DAD562",
"2. c #DDD766",
"3. c #DCD36E",
"4. c #D7C571",
"5. c #D5C673",
"6. c #D4C374",
"7. c #D4C375",
"8. c #D8C775",
"9. c #DACC72",
"0. c #DBCC72",
"q. c #DBCB7A",
"w. c #DBCB7B",
"e. c #DCCD79",
"r. c #DDCF7B",
"t. c #DED172",
"y. c #E2DE60",
"u. c #E2DF60",
"i. c #E3DF61",
"p. c #E0DA6B",
"a. c #E3DC6D",
"s. c #E0D772",
"d. c #E0D675",
"f. c #E4DD73",
"g. c #E2D77A",
"h. c #E0D47C",
"j. c #E1D57F",
"k. c #E7DF79",
"l. c #E3E061",
"z. c #E4E162",
"x. c #E5E363",
"c. c #E5E463",
"v. c #E2E064",
"b. c #E2E164",
"n. c #E3E067",
"m. c #E6E564",
"M. c #E6E664",
"N. c #E6E665",
"B. c #E7E665",
"V. c #E7E765",
"C. c #E6E566",
"Z. c #E7E666",
"A. c #E7E766",
"S. c #E7E667",
"D. c #E8E766",
"F. c #E8E866",
"G. c #E6E36B",
"H. c #E7E668",
"J. c #E6E46A",
"K. c #E8E768",
"L. c #E8E76A",
"P. c #E8E66E",
"I. c #E9E76E",
"U. c #E8E868",
"Y. c #E8E869",
"T. c #E9E86B",
"R. c #E7E271",
"E. c #E7E272",
"W. c #EAE770",
"Q. c #EAE476",
"!. c #ECE877",
"~. c #EBE37C",
"^. c #EEEA7C",
"/. c #EFEB7E",
"(. c #E1D380",
"). c #E6DA83",
"_. c #E7DB83",
"`. c #E7DA85",
"'. c #E7DA86",
"]. c #E9E087",
"[. c #EFE685",
"{. c #EFE687",
"}. c #EFEA81",
"|. c #EEE883",
" X c #EAE088",
".X c #ECE189",
"XX c #ECE18B",
"oX c #EDE589",
"OX c #EDE18C",
"+X c #EEE58C",
"@X c #F1EC86",
"#X c #F1E68E",
"$X c #F0E988",
"%X c #F1E88E",
"&X c #F2E991",
"*X c #F2EA90",
"=X c #F3EB90",
"-X c #F3EB91",
";X c #F4EC92",
":X c #F6EF94",
">X c None",
/* pixels */
">X>X>X>X>X>X>X>X>X>X>X>X>X>X>X>X>X>X>X>X>X>X>X>X>X>X>X>X>X>X                                    >X>X>X>X>X>X>X>X>X>X>X>X>X>X>X>X>X>X>X>X>X>X>X>X>X>X>X>X>X>X>X",
">X>X>X>X>X>X>X>X>X>X>X>X>X>X>X>X>X>X>X>X>X>X>X>X>X>X>X>X                                          >X>X>X>X>X>X>X>X>X>X>X>X>X>X>X>X>X>X>X>X>X>X>X>X>X>X>X>X>X>X",
">X>X>X>X>X>X>X>X>X>X>X>X>X>X>X>X>X>X>X>X>X>X>X>X>X>X        q -.F.F.F.F.F.F.F.F.F.F.F.F.F.F.F.      >X>X>X>X>X>X>X>X>X>X>X>X>X>X>X>X>X>X>X>X>X>X>X>X>X>X>X>X>X",
">X>X>X>X>X>X>X>X>X>X>X>X>X>X>X>X>X>X>X>X>X>X>X>X>X      > O.F.F.F.F.F.F.F.F.F.F.F.F.F.F.F.F.F.F.    >X>X>X>X>X>X>X>X>X>X>X>X>X>X>X>X>X>X>X>X>X>X>X>X>X>X>X>X>X",
">X>X>X>X>X>X>X>X>X>X>X>X>X>X>X>X>X>X>X>X>X>X>X      # G c.F.F.) a p p p p p p p p p p p p p F.F.    >X>X>X>X>X>X>X>X>X>X>X>X>X>X>X>X>X>X>X>X>X>X>X>X>X>X>X>X>X",
">X>X>X>X>X>X>X>X>X>X>X>X>X>X>X>X>X>X>X>X>X        i b.F.F.&.j a a a a a a a a a a a a a a a F.F.    >X>X>X>X>X>X>X>X>X>X>X>X>X>X>X>X>X>X>X>X>X>X>X>X>X>X>X>X>X",
">X>X>X>X>X>X>X>X>X>X>X>X>X>X>X>X>X>X>X>X      < $.F.F.b.P d d d d d d d d d d d d d d d d d F.F.    >X>X>X>X>X>X>X>X>X>X>X>X>X>X>X>X>X>X>X>X>X>X>X>X>X>X>X>X>X",
">X>X>X>X>X>X>X>X>X>X>X>X>X>X>X>X>X>X      % ( F.F.F._ g f f f f f f f f f f f f f f f f f f F.F.    >X>X>X>X>X>X>X>X>X>X>X>X>X>X>X>X>X>X>X>X>X>X>X>X>X>X>X>X>X",
">X>X>X>X>X>X>X>X>X>X>X>X>X>X>X>X        B x.F.F.1.l h h h h h h h h h h h h h h h h h h h h F.F.    >X>X>X>X>X>X>X>X>X>X>X>X>X>X>X>X>X>X>X>X>X>X>X>X>X>X>X>X>X",
">X>X>X>X>X>X>X>X>X>X>X>X>X>X        8 =.F.F.n.T k k k k k k k k k k k k k k k k k k k k k k F.F.    >X>X>X>X>X>X>X>X>X>X>X>X>X>X>X>X>X>X>X>X>X>X>X>X>X>X>X>X>X",
">X>X>X>X>X>X>X>X>X>X>X>X>X      = | F.F.C.;.x x z z z z z z z z z z x x z z z z z z z z z z F.F.    >X>X>X>X>X>X>X>X>X>X>X>X>X>X>X>X>X>X>X>X>X>X>X>X>X>X>X>X>X",
">X>X>X>X>X>X>X>X>X>X>X      @ S C.F.F.2.R E E E E E E E E E E E E E E E E E E E E E E E E E F.F.    >X>X>X>X>X>X>X>X>X>X>X>X>X>X>X>X>X>X>X>X>X>X>X>X>X>X>X>X>X",
">X>X>X>X>X>X>X>X>X        t y.F.F.n.,.~ ~ ~ ~ ~ ~ ~ ~ ~ ~ ~ ~ ~ ~ ~ ~ ~ ~ ~ ~ ~ ~ ~ ~ ~ ~ ~ F.F.    >X>X>X>X>X>X>X>X>X>X>X>X>X>X>X>X>X>X>X>X>X>X>X>X>X>X>X>X>X",
">X>X>X>X>X>X>X>X      < @.F.F.C.3.7.7.7.7.7.7.7.7.7.7.7.7.7.7.7.7.5.p.5.7.7.7.7.7.7.7.7.7.7.F.F.    >X>X>X>X>X>X>X>X>X>X>X>X>X>X>X>X>X>X>X>X>X>X>X>X>X>X>X>X>X",
">X>X>X>X>X>X      $ K C.F.C.a.e.w.w.w.w.w.w.w.w.w.w.w.w.w.w.w.e.t.U.F.w.w.w.w.w.w.w.w.w.w.w.U.F.    >X>X>X>X>X>X>X>X>X>X>X>X>X>X>X>X>X>X>X>X>X>X>X>X>X>X>X>X>X",
">X>X>X>X        c z.F.F.J.g.(.(.(.(.(.(.(.(.(.(.(.(.(.(.(.(.g.J.F.F.F.(.(.(.(.(.(.(.(.(.(.(.F.F.    >X>X>X>X>X>X>X>X>X>X>X>X>X>X>X>X>X>X>X>X>X>X>X>X>X>X>X>X>X",
">X>X        3 $.F.F.J.k.`.`.`.'.'.'.'.'.'.'.'.'.`.'.'.`.`.E.C.F.C.F.F.`.'.'.`.`.`.`.`.`.'.'.F.F.    >X>X>X>X>X>X>X>X>X>X>X>X>X>X>X>X>X>X>X>X>X>X>X>X>X>X>X>X>X",
">X      * ] F.F.C.Q.oXoXOXOXOXOXOXOXOXOXOXOXOXOXOXoXOX~.J.F.F.O., F.F.OXOXOXOXOXOXOXOXOXOXOXF.F.                    >X>X>X>X>X>X>X>X>X>X>X>X>X>X>X>X>X>X>X>X>X",
"      B c.F.F.W.{.#X#X&X#X#X#X#X&X#X#X#X#X#X#X#X#X{.I.F.F.u.u     F.F.#X&X#X%X#X&X#X#X#X%X#XF.F.                      >X>X>X>X>X>X>X>X>X>X>X>X>X>X>X>X>X>X>X>X",
"    B F.F.T.|.&X&X&X&X&X&X&X&X&X&X&X&X&X&X&X&X#X!.F.F.F.F.F.F.F.F.F.C.&X&X&X&X&X&X&X&X&X&X&XF.F.F.F.F.F.F.F.F.F.S       >X>X>X>X>X>X>X>X>X>X>X>X>X>X>X>X>X>X>X",
"    F.F.^.=X;X;X=X=X:X=X;X;X;X;X;X;X;X;X&X-X}.L.F.F.F.F.F.F.F.F.F.F.F.;X=X;X;X;X-X;X;X;X;X;XF.F.F.F.F.F.F.F.F.F.F.B     >X>X>X>X>X>X>X>X>X>X>X>X>X>X>X>X>X>X>X",
"    F.F.:X:X:X:X:X:X:X:X:X:X:X:X:X:X:X:X:X:X:X:X:X:X:X:X:X:X:X:X:X:X:X:X:X:X:X:X:X:X:X:X:X:X:X:X:X:X:X:X:X:X:X/.F.S     >X>X>X>X>X>X>X>X>X>X>X>X>X>X>X>X>X>X>X",
"    F.F.:X:X:X:X:X:X:X:X:X:X:X:X:X:X:X:X:X:X:X:X:X:X:X:X:X:X:X:X:X:X:X:X:X:X:X:X:X:X:X:X:X:X:X:X:X:X:X:X:X:X@XF.F.S     >X>X>X>X>X>X>X>X>X>X>X>X>X>X>X>X>X>X>X",
"    F.F.%X=X&X&X&X=X=X%X=X&X&X&X=X&X=X&X=X%X&X&X=X=X%X=X&X=X&X&X&X=X%X&X=X&X=X=X%X&X&X&X&X=X%X&X&X&X&X=X%X@XU.F.{       >X>X>X>X>X>X>X>X>X>X>X>X>X>X>X>X>X>X>X",
"    F.F.+X+X+X+X+X#X+X+X+X+X+X#X+X+X+X+X#X+X+X+X+XOX+X+X#X+X+X+X+X+X+X+X+X+X+X+X#X+X+X+X+X+XOX+X+X+X+X+X+XT.C.$.+     >X>X>X>X>X>X>X>X>X>X>X>X>X>X>X>X>X>X>X>X",
"    F.F.].].].].].]. X X].].].].].].].].].].].].].oX].].].].].].].].].].].oX X X].].].].oX]. X X].].].].T.F.-.*     >X>X>X>X>X>X>X>X>X>X>X>X>X>X>X>X>X>X>X>X>X",
"    F.F.).).).).).).`.`.).).).`.).)._.`.).).).).).)._.`.).).).).'._.).).).).).).).).).`.`.).).).`.).).E.F.c.<     >X>X>X>X>X>X>X>X>X>X>X>X>X>X>X>X>X>X>X>X>X>X",
"    F.F.t.g.j.j.j.j.j.j.j.j.j.(.j.j.j.j.j.j.j.j.j.j.(.(.j.j.j.j.j.j.j.j.j.j.j.j.j.j.j.(.j.j.j.j.j.j.f.F.F.u     >X>X>X>X>X>X>X>X>X>X>X>X>X>X>X>X>X>X>X>X>X>X>X",
"    F.F.( J } +.,.9.e.r.r.r.r.r.r.r.r.r.r.r.r.r.r.r.r.r.r.r.r.r.r.r.r.e.e.r.r.r.e.r.r.r.r.r.r.e.e.d.C.F.G     >X>X>X>X>X>X>X>X>X>X          . .     >X>X>X>X>X",
"    F.F.V V V V V B Z F I +.:.4.8.8.8.8.8.8.8.8.8.8.8.8.8.8.8.8.8.8.8.8.8.8.8.8.8.8.8.8.8.8.8.8.0.D.F.|       >X>X>X>X>X>X>X>X  . .           .         >X>X>X",
"    F.F.F.F.F.F.F.F.F.F.C.F.F.F.F.F.F.F.F.F.F.F.F.F.F.F.F.F.F.F.F.F.D./ / / / / / / / / 6./ F.F.F.F.&.+     >X>X>X>X>X>X>X>X    . 0  .-.c.D.D.-. .0       >X>X",
"      F.F.F.F.F.F.F.F.F.F.F.F.F.F.F.F.F.F.F.F.F.F.F.F.F.F.F.F.F.F.F.D.U W W ! ! ! ! ! W W U F.F.F.&.+     >X>X>X>X>X>X>X>X      ' F.F.F.F.F.F.F.D.L.]       >X",
">X                                                                F.F.5 5 5 5 5 5 5 5 5 5 5 F.F.        >X>X>X>X>X>X>X>X>X    } F.F.X.v w 6 7 v X.F.F.'     >X",
">X>X                                                              F.F.: : : : : : : : : : : F.F.      >X>X>X>X>X>X>X>X>X    v F.c.N : : : : : : : v V.F.v     ",
">X>X>X>X>X>X>X>X>X>X>X>X>X>X>X>X>X>X>X>X>X>X>X>X>X>X>X>X>X>X>X    F.F.; - - - - - - - - - - F.F.    >X>X>X>X>X>X>X>X>X>X  . -.C.H - - ; ; - - - - - H F.&.    ",
">X>X>X>X>X>X>X>X>X>X>X>X>X>X>X>X>X>X>X>X>X>X>X>X>X>X>X>X>X>X>X    F.F.& & & & & & & & & & & F.F.    >X>X>X>X>X>X>X>X>X>X  . c.F.4 & & & & & & & & & 4 F.x.    ",
">X>X>X>X>X>X>X>X>X>X>X>X>X>X>X>X>X>X>X>X>X>X>X>X>X>X>X>X>X>X>X    F.F.; : ; ; ; ; ; ; ; ; ; F.F.    >X>X>X>X>X>X>X>X>X>X    c.F.: ; ; ; ; ; ; : ; ; : F.c..   ",
">X>X>X>X>X>X>X>X>X>X>X>X>X>X>X>X>X>X>X>X>X>X>X>X>X>X>X>X>X>X>X    F.F.7 7 7 7 7 7 7 7 7 7 7 F.F.    >X>X>X>X>X>X>X>X>X>X    m.F.e 7 7 7 7 7 7 7 7 7 e F.c..   ",
">X>X>X>X>X>X>X>X>X>X>X>X>X>X>X>X>X>X>X>X>X>X>X>X>X>X>X>X>X>X>X    F.D.u u u e u u u u u u u F.F.    >X>X>X>X>X>X>X>X>X>X  . -.D.{ u u u e u u u e e [ F.-.    ",
">X>X>X>X>X>X>X>X>X>X>X>X>X>X>X>X>X>X>X>X>X>X>X>X>X>X>X>X>X>X>X    F.D.M M M M M M M M M M M F.F.    >X>X>X>X>X>X>X>X>X>X  . M D.D.K M M M M M M M ( m.D.v     ",
">X>X>X>X>X>X>X>X>X>X>X>X>X>X>X>X>X>X>X>X>X>X>X>X>X>X>X>X>X>X>X    F.F.C C C C C C C C C C C F.F.    >X>X>X>X>X>X>X>X>X>X>X    ] F.F.$.( D C D ( %.F.F.] @   >X",
">X>X>X>X>X>X>X>X>X>X>X>X>X>X>X>X>X>X>X>X>X>X>X>X>X>X>X>X>X>X>X    F.F.F.F.F.F.F.F.F.F.F.F.F.F.F.    >X>X>X>X>X>X>X>X>X>X>X      ] F.F.F.F.F.F.F.F.V.}       >X",
">X>X>X>X>X>X>X>X>X>X>X>X>X>X>X>X>X>X>X>X>X>X>X>X>X>X>X>X>X>X>X      F.F.F.F.F.F.F.F.F.F.F.F.F.      >X>X>X>X>X>X>X>X>X>X>X>X      0  .y.D.D.C.-. .0       >X>X",
">X>X>X>X>X>X>X>X>X>X>X>X>X>X>X>X>X>X>X>X>X>X>X>X>X>X>X>X>X>X>X>X                                  >X>X>X>X>X>X>X>X>X>X>X>X>X>X                  . .     >X>X>X",
">X>X>X>X>X>X>X>X>X>X>X>X>X>X>X>X>X>X>X>X>X>X>X>X>X>X>X>X>X>X>X>X>X                              >X>X>X>X>X>X>X>X>X>X>X>X>X>X>X>X>X              . . >X>X>X>X>X"
};
