/* XPM */
static xpm_string_t red2_bullet_xpm[] = {
"30 30 11 1",
" 	c None",
".	c #F05D62",
"+	c #EF434A",
"@	c #ED2A32",
"#	c #EC1C24",
"$	c #EF3E45",
"%	c #F05E62",
"&	c #ED5558",
"*	c #ED2D34",
"=	c #F04950",
"-	c #FFFFFF",
"           .+@###$%           ",
"        &*###########&        ",
"       *###############       ",
"     .##################&     ",
"    =####################=    ",
"   &######################.   ",
"   ########################   ",
"  #########################*  ",
" &##########################& ",
" ###########------##########* ",
" ##########--------########## ",
"%#########----------#########.",
"$########------------########+",
"########--------------#######@",
"########--------------########",
"########--------------########",
"@#######--------------########",
"+#######--------------#######$",
".########------------########%",
" #########-----------######## ",
" *#########---------######### ",
" &##########------##########& ",
"  *#########################  ",
"   ########################   ",
"   .######################&   ",
"    =####################=    ",
"     &##################.     ",
"       ###############*       ",
"        &###########*&        ",
"           %$###@+.           "};
