/* XPM */
static xpm_string_t yellow3_bullet_xpm[] = {
"30 30 3 1",
" 	c None",
".	c #FFF600",
"+	c #D5E2FF",
"          ..........          ",
"        ..............        ",
"      ..................      ",
"     ....................     ",
"    ......................    ",
"   ........................   ",
"  ..........................  ",
"  ..........++++++..........  ",
" ..........++++++++.......... ",
" ........++++++++++++........ ",
".........+++++++++++++........",
"........++++++++++++++........",
".......++++++++++++++++.......",
".......++++++++++++++++.......",
".......++++++++++++++++.......",
".......++++++++++++++++.......",
".......++++++++++++++++.......",
".......++++++++++++++++.......",
"........++++++++++++++........",
".........+++++++++++++........",
" ........++++++++++++........ ",
" .........++++++++++......... ",
"  ..........++++++..........  ",
"  ..........................  ",
"   ........................   ",
"    ......................    ",
"     ....................     ",
"      ..................      ",
"        ..............        ",
"          ..........          "};
