/* XPM */
static xpm_string_t yellow4_bullet_xpm[] = {
"30 30 3 1",
" 	c None",
".	c #FFF600",
"+	c #F0F5FF",
"          ..........          ",
"        ..............        ",
"      ..................      ",
"     ....................     ",
"    ........++++++........    ",
"   .......++++++++++.......   ",
"  ......++++++++++++++......  ",
"  .....++++++++++++++++.....  ",
" .....++++++++++++++++++..... ",
" .....++++++++++++++++++..... ",
".....++++++++++++++++++++.....",
".....++++++++++++++++++++.....",
"....++++++++++++++++++++++....",
"....++++++++++++++++++++++....",
"....++++++++++++++++++++++....",
"....++++++++++++++++++++++....",
"....++++++++++++++++++++++....",
"....++++++++++++++++++++++....",
".....++++++++++++++++++++.....",
".....++++++++++++++++++++.....",
" .....++++++++++++++++++..... ",
" .....++++++++++++++++++..... ",
"  .....++++++++++++++++.....  ",
"  ......++++++++++++++......  ",
"   .......++++++++++.......   ",
"    ........++++++........    ",
"     ....................     ",
"      ..................      ",
"        ..............        ",
"          ..........          "};
